HIERARCHY
ROOT RootJoint
{
    OFFSET   0.000000   0.000000   0.000000
    CHANNELS 6 Xposition Yposition Zposition Xrotation Yrotation Zrotation
    JOINT pelvis_lowerback
    {
        OFFSET   0.000000   0.093605   0.000000
        CHANNELS 3 Xrotation Yrotation Zrotation
        JOINT lowerback_torso
        {
            OFFSET   0.000000   0.100000   0.000000
            CHANNELS 3 Xrotation Yrotation Zrotation
            JOINT torso_head
            {
                OFFSET   0.000000   0.282350   0.000000
                CHANNELS 3 Xrotation Yrotation Zrotation
                End Site
                {
                    OFFSET   0.000000   0.192650   0.000000
                }
            }
            JOINT rTorso_Clavicle
            {
                OFFSET  -0.001000   0.157500   0.000000
                CHANNELS 3 Xrotation Yrotation Zrotation
                JOINT rShoulder
                {
                    OFFSET  -0.117647   0.000000   0.000000
                    CHANNELS 3 Xrotation Yrotation Zrotation
                    JOINT rElbow
                    {
                        OFFSET  -0.245000   0.000000   0.000000
                        CHANNELS 3 Xrotation Yrotation Zrotation
                        JOINT rWrist
                        {
                            OFFSET  -0.240000   0.000000   0.000000
                            CHANNELS 3 Xrotation Yrotation Zrotation
                            End Site
                            {
                                OFFSET  -0.116353  -0.002500   0.000000
                            }
                        }
                    }
                }
            }
            JOINT lTorso_Clavicle
            {
                OFFSET   0.001000   0.157500   0.000000
                CHANNELS 3 Xrotation Yrotation Zrotation
                JOINT lShoulder
                {
                    OFFSET   0.117647   0.000000   0.000000
                    CHANNELS 3 Xrotation Yrotation Zrotation
                    JOINT lElbow
                    {
                        OFFSET   0.245000   0.000000   0.000000
                        CHANNELS 3 Xrotation Yrotation Zrotation
                        JOINT lWrist
                        {
                            OFFSET   0.240000   0.000000   0.000000
                            CHANNELS 3 Xrotation Yrotation Zrotation
                            End Site
                            {
                                OFFSET   0.116353  -0.002500   0.000000
                            }
                        }
                    }
                }
            }
        }
    }
    JOINT rHip
    {
        OFFSET  -0.100000  -0.051395   0.000000
        CHANNELS 3 Xrotation Yrotation Zrotation
        JOINT rKnee
        {
            OFFSET   0.000000  -0.410000   0.000000
            CHANNELS 3 Xrotation Yrotation Zrotation
            JOINT rAnkle
            {
                OFFSET   0.000000  -0.390000   0.000000
                CHANNELS 3 Xrotation Yrotation Zrotation
                JOINT rToeJoint
                {
                    OFFSET   0.000000  -0.050000   0.130000
                    CHANNELS 3 Xrotation Yrotation Zrotation
                    End Site
                    {
                        OFFSET  -0.010000   0.002000   0.060000
                    }
                }
            }
        }
    }
    JOINT lHip
    {
        OFFSET   0.100000  -0.051395   0.000000
        CHANNELS 3 Xrotation Yrotation Zrotation
        JOINT lKnee
        {
            OFFSET   0.000000  -0.410000   0.000000
            CHANNELS 3 Xrotation Yrotation Zrotation
            JOINT lAnkle
            {
                OFFSET   0.000000  -0.390000   0.000000
                CHANNELS 3 Xrotation Yrotation Zrotation
                JOINT lToeJoint
                {
                    OFFSET   0.000000  -0.050000   0.130000
                    CHANNELS 3 Xrotation Yrotation Zrotation
                    End Site
                    {
                        OFFSET   0.010000   0.002000   0.060000
                    }
                }
            }
        }
    }
}
MOTION
Frames: 17
Frame Time:   0.008333
 -2.376719   0.925631   3.975860   0.000000   0.000000   0.000000   0.000000   0.000000   0.000000   0.000000   0.000000   0.000000   0.000000   0.000000   0.000000   0.000000   0.000000   0.000000   0.000000   0.000000   0.000000   0.000000   0.000000   0.000000   0.000000   0.000000   0.000000   0.000000   0.000000   0.000000   0.000000   0.000000   0.000000   0.000000   0.000000   0.000000   0.000000   0.000000   0.000000   0.000000   0.000000   0.000000   0.000000   0.000000   0.000000   0.000000   0.000000   0.000000   0.000000   0.000000   0.000000   0.000000   0.000000   0.000000   0.000000   0.000000   0.000000   0.000000   0.000000   0.000000   0.000000   0.000000   0.000000
 -2.376586   0.925872   3.975700  -0.263078  -0.318707  -0.027284   0.204962   0.150566   0.059968   0.126040  -0.280914   0.013243  -0.079088  -0.039649   0.136674  -0.096304  -0.323862  -0.379654   0.030383   0.600162   2.388646   0.062916   3.501550  -0.002011   0.107699  -1.792795  -2.537523   0.184667   0.314416  -0.151962   1.236809  -0.026260  -2.126110   0.016571  -0.847756   0.011165   0.244122   0.675584   2.624922   0.027020   0.253998  -0.167931   0.767147   0.001302  -0.000445  -0.911653  -0.251170   0.068683  -0.056533  -0.000062   0.000155   0.076740   0.380714   0.230324   0.628856  -0.001114   0.000348  -0.751896   0.270562   0.044190   0.304689  -0.000655   0.000884
 -2.376463   0.926331   3.975394  -0.592707  -0.784899  -0.044340   0.397183   0.310815   0.123143   0.282114  -0.516633   0.020531  -0.140984  -0.092088   0.286406  -0.191393  -0.410872  -0.167098   0.008930   1.413058   5.127411   0.146940   7.175334  -0.001544   0.217672  -2.434014  -4.424710   0.377043   0.492150  -0.949017   2.448073  -0.200487  -4.776096   0.038316  -1.685727   0.019755   0.519180   1.100560   4.584330   0.117235   0.489727  -0.503001   1.582963   0.003492  -0.002076  -1.764642  -0.490873   0.128580  -0.156638  -0.000304   0.000532   0.169014   0.756789   0.630559   1.309506  -0.003183  -0.000197  -1.453983   0.530678   0.092561   0.555851  -0.001461   0.001087
 -2.376360   0.926653   3.974976  -0.929392  -1.338233  -0.049863   0.569974   0.486035   0.178730   0.424440  -0.701998   0.021635  -0.209048  -0.144547   0.431446  -0.278820  -0.335907   0.456697  -0.063498   2.293694   8.004534   0.233009  10.902631   0.001020   0.332556  -2.599594  -5.580592   0.558244   0.546125  -2.139983   3.621888  -0.523031  -7.757929   0.060218  -2.498146   0.026154   0.788422   1.318943   5.802706   0.237612   0.702475  -0.977168   2.363777   0.005915  -0.004156  -2.560036  -0.718311   0.180239  -0.253103  -0.000602   0.000901   0.236970   1.110951   1.166323   1.957276  -0.005597  -0.001140  -2.108767   0.774694   0.142604   0.782911  -0.002312   0.000979
 -2.376267   0.926582   3.974486  -1.256897  -1.941692  -0.047034   0.729080   0.668623   0.226012   0.550869  -0.851786   0.019256  -0.283897  -0.194436   0.568765  -0.354681  -0.164373   1.338702  -0.179074   3.187181  10.915822   0.311456  14.656951   0.004660   0.445833  -2.554643  -6.180141   0.722519   0.514042  -3.554838   4.754515  -0.977224 -10.956643   0.079731  -3.279804   0.030981   1.056884   1.378107   6.477222   0.376834   0.895517  -1.562010   3.098562   0.008219  -0.006225  -3.302586  -0.933466   0.224494  -0.346431  -0.000915   0.001227   0.272190   1.443319   1.811161   2.557738  -0.007964  -0.002102  -2.720581   1.003318   0.193444   0.986126  -0.003083   0.000744
 -2.376207   0.925913   3.973954  -1.569607  -2.574096  -0.035708   0.879905   0.851728   0.259014   0.666848  -0.976887   0.000931  -0.362407  -0.241410   0.702318  -0.416723   0.062398   2.378334  -0.328870   4.063057  13.797136   0.377315  18.425462   0.008627   0.551839  -2.413621  -6.380666   0.867331   0.424352  -5.131051   5.785942  -1.517246 -14.148151   0.095201  -4.028471   0.034280   1.326762   1.311042   6.707017   0.529101   1.071736  -2.231966   3.788482   0.010210  -0.008076  -3.995976  -1.136490   0.262159  -0.436353  -0.001214   0.001494   0.275450   1.754491   2.542707   3.110599  -0.010076  -0.002920  -3.292499   1.217393   0.244393   1.167881  -0.003723   0.000473
 -2.376189   0.924493   3.973407  -1.864869  -3.221870  -0.017636   1.025929   1.031621   0.274558   0.777097  -1.083369  -0.034732  -0.441577  -0.285634   0.829677  -0.464539   0.317950   3.499338  -0.504681   4.903877  16.602759   0.428640  22.201315   0.012515   0.647836  -2.233079  -6.308940   0.991312   0.299500  -6.782592   6.711193  -2.113609 -17.247064   0.106181  -4.741559   0.036361   1.594339   1.153766   6.639835   0.690468   1.233185  -2.963971   4.436226   0.011802  -0.009620  -4.643424  -1.327631   0.294073  -0.521902  -0.001472   0.001696   0.249723   2.044778   3.342263   3.618667  -0.011826  -0.003542  -3.827142   1.417767   0.294975   1.330972  -0.004212   0.000214
 -2.375973   0.921754   3.972543  -1.907943  -3.877513  -0.001777   1.057233   1.176009   0.353856   0.744270  -1.170043  -0.077922  -0.568296  -0.424775   1.026716  -0.529566   0.487210   4.063984  -0.758590   5.835342  19.310983   0.447093  25.974591   0.018912   0.687412  -2.061330  -5.527634   1.151971   0.164771  -7.675348   7.190185  -2.719953 -20.615680   0.110373  -5.424662   0.035792   1.829887   0.900583   5.812107   0.541897   1.256296  -3.658947   4.964052   0.012208  -0.011000  -4.870780  -1.532669   0.454861  -0.474665  -0.000960   0.001010   0.049291   2.608469   4.082660   3.636717  -0.009582  -0.002830  -3.876765   1.707257   0.211457   1.569642  -0.004731   0.000670
 -2.375587   0.921368   3.971831  -2.009784  -4.515862  -0.067992   1.150791   1.297878   0.525712   0.738027  -1.258956  -0.081937  -0.693757  -0.559530   1.226771  -0.592397   0.673224   4.615980  -1.036258   6.708537  21.805426   0.454551  29.745319   0.024903   0.730086  -1.891603  -4.885985   1.286441   0.002898  -8.594957   7.593506  -3.336597 -23.767980   0.110919  -6.068162   0.035082   2.046157   0.630086   5.012128   0.223886   1.098880  -3.728502   5.438382   0.009916  -0.012335  -4.836203  -1.865957   0.867695  -0.317195  -0.001139  -0.000785  -0.038686   3.353870   4.191710   3.991022  -0.007783  -0.001828  -3.567171   2.142858  -0.175204   1.833313  -0.002988   0.001811
 -2.375219   0.920825   3.971177  -2.075545  -5.059824  -0.237114   1.227143   1.376616   0.764601   0.724449  -1.369347  -0.034001  -0.808411  -0.687172   1.423010  -0.649456   0.854124   4.975086  -1.325211   7.522458  24.074270   0.446152  33.524601   0.029978   0.769535  -1.706318  -4.279155   1.398624  -0.175483  -9.317924   7.933702  -3.950368 -26.660150   0.107822  -6.680977   0.034133   2.256339   0.306170   4.217886  -0.114957   1.073845  -3.644098   5.939126   0.007946  -0.012572  -4.888629  -2.062933   1.059138  -0.227241  -0.000996  -0.001251  -0.097222   3.868797   4.434401   3.998441  -0.006231  -0.001461  -3.622373   2.385059  -0.231741   2.111415  -0.002385   0.002005
 -2.374759   0.920656   3.970693  -2.122737  -5.560622  -0.219602   1.294070   1.443356   0.834868   0.707768  -1.481777  -0.042391  -0.913805  -0.806999   1.605475  -0.703221   1.028855   5.269282  -1.623907   8.277287  26.162905   0.428715  37.307634   0.034722   0.813230  -1.509319  -3.794986   1.491197  -0.356308  -9.909675   8.221288  -4.541024 -29.286114   0.102381  -7.254965   0.032789   2.458386  -0.021521   3.583020  -0.401076   1.076973  -3.752584   6.359097   0.006410  -0.012040  -5.010975  -2.233704   1.208492  -0.142668  -0.000845  -0.001511  -0.139618   4.372029   4.413796   4.197897  -0.004978  -0.001134  -3.472709   2.630421  -0.349700   2.312805  -0.001687   0.002054
 -2.374353   0.920534   3.970298  -2.136353  -6.015767  -0.192948   1.347535   1.500814   0.908732   0.678404  -1.591492  -0.061971  -1.012690  -0.919364   1.769731  -0.760011   1.197627   5.465087  -1.930404   8.977255  28.069239   0.404254  41.094214   0.039032   0.858490  -1.303243  -3.414065   1.567964  -0.533585 -10.389095   8.463780  -5.106039 -31.690793   0.095511  -7.793487   0.031159   2.651091  -0.347342   3.066043  -0.677250   1.087495  -3.857730   6.722194   0.005161  -0.011160  -5.144898  -2.390201   1.339259  -0.070485  -0.000714  -0.001600  -0.173766   4.835017   4.384349   4.328975  -0.003977  -0.000884  -3.398143   2.851141  -0.440550   2.520013  -0.001164   0.002064
 -2.374017   0.920429   3.969980  -2.128119  -6.422469  -0.165067   1.397042   1.551244   0.982632   0.642171  -1.696558  -0.081448  -1.104727  -1.024732   1.922544  -0.822816   1.360151   5.584131  -2.243198   9.625450  29.809591   0.375611  44.883255   0.042805   0.905840  -1.091794  -3.139681   1.631262  -0.704609 -10.778853   8.668113  -5.642087 -33.894527   0.087900  -8.297221   0.029303   2.834595  -0.662724   2.654062  -0.942410   1.098547  -3.951866   7.046577   0.004146  -0.010142  -5.276164  -2.536481   1.460373  -0.006439  -0.000605  -0.001592  -0.211692   5.265917   4.359100   4.424588  -0.003179  -0.000679  -3.342887   3.056643  -0.523833   2.704516  -0.000781   0.002024
 -2.373843   0.920371   3.969737  -2.147674  -6.881239  -0.102779   1.507395   1.593455   0.946403   0.623775  -1.723047  -0.039655  -1.134769  -1.161234   2.080454  -0.999089   1.431552   5.493406  -3.087618  10.091001  31.443460   0.314884  48.655807   0.076710   0.841340  -0.938054  -2.474803   1.715056  -0.802900 -10.785742   8.745774  -6.110690 -35.844973   0.080030  -8.855850   0.027586   2.958914  -1.054492   1.799770  -1.157016   1.055214  -4.073026   7.287760   0.003283  -0.009232  -5.223759  -2.556482   1.497039   0.076836  -0.000472  -0.001668  -0.118905   5.648200   4.279006   4.392527  -0.002544  -0.000522  -3.425076   3.326002  -0.470761   2.833812  -0.000657   0.001835
 -2.373782   0.920341   3.969545  -2.138577  -7.335175  -0.043726   1.610942   1.637874   0.908395   0.595438  -1.733911   0.011242  -1.147550  -1.289974   2.226327  -1.226704   1.503946   5.245118  -3.932489  10.510271  32.856241   0.245574  52.440366   0.110058   0.775318  -0.749722  -2.096867   1.796366  -0.876455 -10.592598   8.819225  -6.520731 -37.530036   0.070926  -9.371157   0.025643   3.071479  -1.426479   1.120603  -1.375854   1.011767  -4.178706   7.490131   0.002586  -0.008308  -5.182307  -2.574296   1.528905   0.167853  -0.000371  -0.001759  -0.027720   5.999042   4.206381   4.319541  -0.002033  -0.000351  -3.528832   3.575424  -0.413494   2.939258  -0.000560   0.001599
 -2.373815   0.920328   3.969441  -2.106894  -7.761955   0.010429   1.702453   1.685953   0.876522   0.551083  -1.734193   0.066403  -1.152628  -1.410713   2.362592  -1.488028   1.581627   4.887470  -4.765437  10.893662  34.092362   0.173420  56.112536   0.140992   0.724604  -0.473275  -1.954597   1.874397  -0.934151 -10.269922   8.889884  -6.881518 -39.001178   0.061654  -9.843526   0.023486   3.177079  -1.734578   0.654195  -1.588431   0.968851  -4.267682   7.658434   0.002029  -0.007367  -5.152519  -2.592123   1.559379   0.250902  -0.000298  -0.001772   0.053574   6.323366   4.144830   4.226815  -0.001619  -0.000195  -3.641568   3.806979  -0.356140   3.033773  -0.000484   0.001383
 -2.373926   0.920324   3.969452  -2.059383  -8.147147   0.061138   1.778158   1.737687   0.850151   0.489680  -1.725559   0.123362  -1.152919  -1.523785   2.490887  -1.773730   1.664251   4.458836  -5.582062  11.246109  35.186183   0.103314  59.556176   0.168187   0.687357  -0.105878  -1.989196   1.948927  -0.979384  -9.864423   8.957954  -7.201117 -40.298740   0.052848 -10.277139   0.021185   3.277343  -1.981102   0.356843  -1.787736   0.926634  -4.342421   7.801206   0.001586  -0.006448  -5.131215  -2.609760   1.588633   0.325995  -0.000244  -0.001718   0.126023   6.623799   4.093033   4.123402  -0.001283  -0.000076  -3.758317   4.022175  -0.299603   3.119567  -0.000422   0.001201
